<?xml version="1.0" standalone="no"?>
<!DOCTYPE svg PUBLIC "-//W3C//DTD SVG 20010904//EN"
 "http://www.w3.org/TR/2001/REC-SVG-20010904/DTD/svg10.dtd">
<svg version="1.0" xmlns="http://www.w3.org/2000/svg"
 width="93.000000pt" height="354.000000pt" viewBox="0 0 93.000000 354.000000"
 preserveAspectRatio="xMidYMid meet">

<g transform="translate(0.000000,354.000000) scale(0.100000,-0.100000)"
fill="#000000" stroke="none">
<path d="M281 3486 c-18 -14 -39 -33 -46 -43 -24 -35 -45 -117 -45 -175 l0
-59 -30 16 c-34 18 -65 19 -109 4 -43 -15 -51 -35 -50 -121 0 -122 32 -261
116 -508 l55 -165 -7 -215 c-13 -431 -74 -1695 -101 -2117 l-7 -103 377 0 376
0 0 98 c-1 53 -5 225 -11 382 -5 157 -16 496 -24 755 -8 259 -19 621 -26 805
-11 338 -9 441 9 463 5 7 13 28 17 47 4 19 11 41 15 50 5 8 31 87 59 175 77
243 90 417 35 472 -27 27 -84 31 -128 8 -15 -8 -29 -15 -31 -15 -1 0 -5 39 -7
88 -7 129 -46 182 -133 182 -41 0 -91 -40 -113 -90 l-15 -35 -10 37 c-21 85
-97 115 -166 64z m346 -171 c25 -69 -15 -190 -60 -183 -32 5 -51 78 -37 138
24 98 71 120 97 45z m-261 14 c15 -16 20 -40 22 -103 4 -91 -9 -123 -44 -112
-48 15 -73 158 -38 211 20 31 35 31 60 4z m458 -201 c22 -31 20 -80 -5 -133
-43 -92 -125 -58 -103 43 21 95 74 139 108 90z m-657 -51 c25 -47 24 -144 -1
-163 -43 -31 -90 36 -90 129 -1 46 3 61 18 72 25 18 50 5 73 -38z m323 -100
c20 -16 50 -63 50 -79 0 -7 17 -27 37 -44 36 -30 38 -35 38 -92 0 -91 -48
-130 -119 -97 -31 15 -37 15 -65 1 -50 -26 -86 -21 -115 17 -37 49 -36 105 4
147 17 18 30 38 30 45 0 26 30 84 52 99 27 19 67 20 88 3z"/>
</g>
</svg>
