<?xml version="1.0" standalone="no"?>
<!DOCTYPE svg PUBLIC "-//W3C//DTD SVG 20010904//EN"
 "http://www.w3.org/TR/2001/REC-SVG-20010904/DTD/svg10.dtd">
<svg version="1.0" xmlns="http://www.w3.org/2000/svg"
 width="385.000000pt" height="357.000000pt" viewBox="0 0 385.000000 357.000000"
 preserveAspectRatio="xMidYMid meet">

<g transform="translate(0.000000,357.000000) scale(0.100000,-0.100000)"
fill="#000000" stroke="none">
<path d="M1695 3360 c-105 -11 -271 -48 -336 -75 -32 -14 -61 -25 -63 -25 -3
0 -14 20 -25 45 -11 25 -24 45 -28 45 -4 0 -42 -22 -84 -49 -43 -27 -86 -52
-98 -56 -25 -8 -26 -16 -5 -56 19 -37 14 -44 -62 -94 -29 -20 -79 -60 -111
-90 -31 -30 -60 -55 -64 -55 -10 0 -145 -171 -197 -250 -24 -36 -57 -91 -73
-122 -16 -31 -34 -60 -40 -64 -7 -4 -34 -7 -61 -8 l-49 -1 -30 -74 c-17 -41
-31 -90 -32 -109 -2 -30 2 -37 36 -54 26 -14 36 -25 33 -37 -5 -15 -26 -110
-48 -211 -21 -104 -25 -252 -9 -415 11 -123 52 -319 76 -364 14 -29 13 -32
-28 -101 -23 -39 -49 -83 -57 -98 -8 -15 -29 -51 -47 -79 -32 -50 -42 -83 -25
-83 8 0 63 83 75 114 16 40 100 165 109 160 18 -11 5 -53 -42 -134 -58 -100
-100 -187 -100 -206 0 -22 18 -16 26 8 10 32 135 248 144 248 4 0 15 -19 26
-43 25 -55 97 -179 141 -241 l35 -49 -13 -116 c-16 -147 -17 -183 -3 -188 12
-4 18 33 30 184 6 82 16 95 40 55 8 -12 7 -53 -2 -146 -8 -71 -11 -133 -8
-137 14 -24 22 -1 29 86 4 53 10 107 14 121 6 24 8 23 71 -37 51 -48 177 -151
232 -189 4 -3 1 -24 -6 -45 -8 -22 -17 -54 -20 -71 l-7 -30 96 -27 c112 -32
115 -32 115 -10 0 9 5 31 12 49 l11 33 66 -25 c126 -48 233 -66 431 -71 150
-4 203 -2 280 12 170 32 169 32 183 -4 6 -17 16 -31 22 -31 6 0 35 13 66 29
30 16 66 32 80 36 13 4 34 16 46 27 14 13 50 25 100 34 43 7 155 27 248 44 94
17 201 36 239 41 56 8 79 17 117 46 27 20 46 40 43 44 -2 4 10 18 26 31 148
113 231 199 325 337 l46 67 -30 174 c-16 96 -34 195 -40 220 -6 25 -10 64 -11
88 0 36 3 43 18 40 17 -3 22 -20 84 -332 19 -96 23 -106 35 -90 7 10 11 25 7
34 -3 8 -19 80 -35 160 -15 80 -33 162 -38 183 -11 45 -4 51 48 42 22 -3 41
-3 44 2 3 4 2 35 -2 68 l-6 60 -70 7 c-226 24 -237 25 -254 6 -24 -25 -65
-107 -58 -114 3 -4 47 -9 96 -13 49 -3 92 -9 95 -12 4 -3 13 -57 22 -120 9
-63 22 -143 30 -179 7 -36 18 -96 24 -135 5 -38 12 -80 15 -91 9 -42 -199
-260 -365 -381 -138 -100 -141 -102 -284 -124 -72 -11 -151 -24 -176 -30 -25
-5 -92 -16 -150 -24 -58 -8 -115 -17 -127 -20 -43 -10 -23 10 48 49 39 21 94
57 123 80 28 23 62 49 76 59 53 36 221 231 294 341 42 63 76 118 76 122 0 5
12 34 28 64 15 30 28 56 28 58 1 2 18 -7 38 -19 33 -19 36 -20 43 -3 8 21 60
109 91 151 12 17 22 36 22 41 0 6 -25 24 -55 41 -55 31 -64 46 -45 81 21 39
40 224 40 387 0 210 -10 279 -66 504 -8 30 -14 60 -14 66 0 6 20 19 45 29 25
9 45 22 45 29 0 7 -12 46 -26 87 -14 40 -30 87 -35 105 -11 36 -16 35 -99 -7
-27 -14 -40 -16 -40 -8 0 7 -39 71 -87 143 -111 165 -263 320 -412 420 -57 39
-116 75 -130 82 -40 18 -4 15 79 -7 93 -24 92 -24 55 0 -16 11 -37 24 -45 30
-8 5 -41 17 -72 26 -54 14 -58 18 -58 45 0 24 -4 29 -24 29 -13 0 -29 7 -36
15 -15 18 -100 21 -117 4 -8 -8 -13 -8 -17 0 -4 6 -16 11 -28 11 -17 0 -19 -2
-7 -16 11 -13 9 -14 -17 -9 -16 4 -46 13 -67 21 -40 15 -270 17 -402 4z m615
-41 c72 -15 70 -14 58 -53 -6 -20 -15 -36 -19 -36 -12 0 -119 41 -119 45 0 10
24 55 29 55 3 0 26 -5 51 -11z m-200 -32 c47 -13 117 -39 155 -56 39 -18 82
-34 97 -36 41 -5 240 -127 321 -197 62 -52 108 -99 212 -216 11 -13 34 -47 52
-75 18 -29 45 -72 60 -96 15 -25 28 -58 29 -74 1 -17 7 -39 13 -51 6 -12 22
-55 34 -96 18 -58 27 -76 43 -78 16 -2 26 -21 46 -90 71 -236 82 -553 27 -820
-9 -46 -14 -53 -30 -49 -20 5 -19 7 -118 -147 -17 -27 -31 -53 -31 -57 0 -4
16 -17 35 -29 19 -12 35 -25 35 -29 0 -34 -96 -209 -172 -316 -105 -145 -335
-348 -475 -417 -27 -13 -33 -14 -46 -1 -12 12 -26 7 -108 -37 -51 -28 -96 -54
-99 -59 -11 -17 -126 -42 -243 -53 -124 -11 -391 3 -427 22 -8 4 -45 16 -80
25 -36 9 -81 24 -100 32 -157 70 -249 119 -304 163 -36 27 -69 50 -74 50 -13
0 -201 198 -257 270 -27 36 -61 86 -75 111 -14 26 -39 71 -55 100 -39 69 -89
189 -108 259 -9 30 -25 87 -36 125 -71 250 -53 778 31 871 10 11 18 26 18 33
0 7 20 55 45 107 48 100 51 110 34 116 -8 3 37 98 79 164 45 72 160 214 212
262 14 13 43 41 65 61 22 21 73 61 114 90 66 45 76 49 90 37 15 -13 26 -9 101
37 47 29 85 58 85 64 0 21 18 30 115 59 167 48 210 54 415 50 165 -4 201 -8
275 -29z m-853 -27 l21 -50 -36 -21 c-20 -11 -52 -29 -71 -41 l-34 -22 -18 25
c-10 13 -26 32 -35 41 -21 22 -14 31 50 62 30 15 59 33 66 41 21 26 35 17 57
-35z m1968 -781 c29 -88 26 -102 -23 -113 -15 -3 -37 -8 -49 -12 -17 -5 -25 1
-39 28 -20 39 -45 130 -38 137 10 10 109 48 115 45 4 -2 19 -40 34 -85z
m-2745 0 c27 -6 50 -14 50 -19 0 -5 -13 -38 -30 -73 -16 -36 -30 -69 -30 -74
0 -5 -6 -18 -14 -28 -13 -18 -14 -18 -60 1 -34 14 -44 23 -40 34 6 13 47 124
59 158 5 15 2 15 65 1z m3053 -958 c104 -8 117 -15 117 -60 l0 -23 -152 7
c-84 4 -158 10 -165 14 -9 4 -6 15 8 39 24 36 26 37 192 23z m-308 -236 c32
-19 60 -36 62 -39 5 -4 -87 -166 -94 -166 -7 0 -98 48 -117 62 -18 14 -18 15
0 49 32 57 79 128 85 129 4 0 32 -16 64 -35z m-2012 -982 c26 -13 28 -18 22
-51 -4 -20 -10 -40 -13 -44 -11 -10 -152 28 -152 42 0 4 9 28 20 53 l20 46 38
-16 c20 -8 50 -22 65 -30z m1187 -5 c11 -18 20 -35 20 -38 0 -11 -141 -72
-155 -66 -15 5 -42 53 -34 60 12 9 135 76 142 76 4 0 16 -15 27 -32z"/>
<path d="M1662 3198 c-85 -9 -248 -56 -361 -103 -155 -65 -390 -254 -499 -402
-59 -80 -140 -208 -158 -249 -8 -19 -21 -51 -30 -71 -33 -75 -85 -250 -101
-338 -21 -112 -23 -416 -5 -525 13 -74 77 -296 92 -315 4 -5 13 -28 20 -50 17
-51 73 -156 117 -216 18 -26 33 -51 33 -55 0 -5 42 -55 92 -111 109 -118 216
-208 311 -262 19 -10 43 -24 53 -30 190 -108 461 -164 687 -142 62 6 126 15
142 20 17 5 62 16 100 25 85 20 297 123 380 186 170 127 326 310 415 485 98
192 137 322 172 575 22 166 -9 441 -74 639 -39 119 -138 312 -208 404 -69 90
-196 223 -251 262 -22 17 -55 42 -72 56 -36 29 -157 98 -202 115 -118 45 -148
55 -210 73 -71 21 -243 42 -319 40 -22 -1 -78 -6 -124 -11z m378 -47 c198 -43
287 -80 452 -188 98 -64 245 -202 298 -279 8 -12 39 -56 69 -99 45 -66 161
-297 161 -322 0 -5 11 -44 26 -88 70 -219 64 -627 -12 -861 -18 -56 -37 -110
-43 -121 -5 -10 -30 -61 -54 -113 -25 -52 -68 -126 -96 -163 -28 -37 -51 -71
-51 -74 0 -12 -165 -179 -211 -213 -25 -19 -63 -48 -83 -64 -69 -55 -258 -143
-381 -178 -90 -25 -393 -36 -515 -19 -129 19 -314 93 -449 179 -144 92 -328
280 -403 412 -14 25 -41 73 -61 107 -44 77 -78 170 -124 338 -33 122 -35 142
-40 315 -6 263 20 400 125 665 9 22 40 80 69 128 29 49 53 91 53 95 0 4 18 27
40 52 22 25 57 65 77 90 40 48 190 186 223 204 11 6 57 34 102 62 154 94 396
161 588 163 82 1 136 -6 240 -28z"/>
<path d="M2650 3167 c0 -2 43 -14 96 -27 52 -12 116 -31 142 -42 44 -20 182
-104 192 -117 3 -4 25 -18 50 -32 97 -54 326 -253 435 -379 60 -69 152 -204
190 -278 40 -78 43 -75 14 11 -49 146 -250 381 -491 576 -43 34 -78 65 -78 67
0 20 256 -182 357 -281 l102 -101 -32 60 c-49 90 -207 238 -357 331 -225 140
-270 162 -380 188 -65 15 -240 33 -240 24z m539 -214 c2 -2 0 -3 -6 -3 -6 0
-21 9 -34 21 l-24 20 30 -17 c17 -10 32 -19 34 -21z"/>
</g>
</svg>
