<?xml version="1.0" standalone="no"?>
<!DOCTYPE svg PUBLIC "-//W3C//DTD SVG 20010904//EN"
 "http://www.w3.org/TR/2001/REC-SVG-20010904/DTD/svg10.dtd">
<svg version="1.0" xmlns="http://www.w3.org/2000/svg"
 width="215.000000pt" height="235.000000pt" viewBox="0 0 215.000000 235.000000"
 preserveAspectRatio="xMidYMid meet">

<g transform="translate(0.000000,235.000000) scale(0.100000,-0.100000)"
fill="#000000" stroke="none">
<path d="M675 2041 c-237 -38 -396 -125 -455 -250 -13 -28 -29 -51 -36 -51
-18 0 -24 -35 -24 -157 0 -94 3 -113 15 -113 12 0 15 -13 15 -61 l0 -61 -40
-15 c-22 -9 -40 -19 -40 -24 0 -4 18 0 40 8 22 9 42 14 45 11 3 -2 1 -38 -3
-79 -6 -66 -9 -74 -27 -71 -16 3 -17 2 -6 -12 11 -13 12 -59 6 -225 -9 -272
-10 -275 -58 -279 l-38 -3 3 -67 c3 -65 4 -67 31 -70 16 -2 30 -9 33 -16 3 -8
1 -60 -4 -117 -11 -113 -6 -134 40 -175 35 -32 74 -50 187 -83 193 -57 388
-80 714 -82 114 -1 208 -6 208 -10 1 -5 2 -15 3 -21 0 -7 9 -14 18 -16 12 -2
17 5 20 25 l3 28 160 27 c199 33 344 79 390 122 34 33 55 87 55 147 0 19 6 41
13 48 10 11 9 14 -1 18 -9 4 -11 38 -7 146 28 848 27 832 44 845 12 10 17 35
20 100 16 381 -259 534 -984 547 -181 4 -241 1 -340 -14z m607 -31 c138 -17
266 -34 282 -40 17 -5 63 -19 101 -31 86 -27 159 -72 209 -130 64 -74 90 -154
33 -102 -12 11 -50 36 -84 54 l-63 34 0 48 0 47 -40 0 c-38 0 -40 -2 -40 -30
0 -16 -2 -30 -4 -30 -2 0 -53 12 -113 26 -118 28 -308 48 -560 59 l-163 8 0
39 0 39 -37 -3 c-33 -3 -38 -7 -39 -28 -1 -14 -2 -32 -3 -41 -1 -12 -25 -19
-108 -31 -139 -20 -248 -63 -340 -132 -39 -30 -74 -52 -77 -49 -10 10 37 100
72 135 42 44 174 111 258 133 98 25 294 52 382 54 45 0 195 -13 334 -29z
m-464 -143 c2 -87 0 -107 -11 -107 -11 0 -16 22 -19 98 -5 103 -2 125 16 119
7 -2 12 -42 14 -110z m-48 -52 l0 -75 35 0 35 0 0 75 0 75 160 0 c201 0 411
-22 560 -58 l115 -28 5 -90 5 -89 38 -3 37 -3 0 70 c0 54 3 71 14 71 24 0 132
-78 144 -105 8 -17 12 -86 12 -198 -1 -240 -26 -952 -34 -966 -5 -7 -18 -5
-44 8 -67 33 -219 80 -309 95 -48 8 -108 19 -133 25 -80 18 -335 41 -454 41
-116 0 -311 -21 -376 -40 -19 -6 -69 -17 -111 -25 -41 -8 -111 -28 -155 -44
-43 -16 -88 -31 -99 -35 -20 -6 -20 -2 -18 262 1 147 7 337 12 422 6 85 13
218 17 295 7 174 20 200 144 282 83 55 260 109 368 112 l32 1 0 -75z m968 -50
c2 -87 -6 -130 -22 -114 -8 8 -19 187 -12 204 3 9 12 15 19 13 8 -3 13 -35 15
-103z m-1538 -160 c0 -58 -4 -105 -9 -105 -10 0 -25 185 -16 200 18 28 25 0
25 -95z m1775 -63 c0 -140 -19 -139 -23 1 -2 85 0 108 10 105 9 -3 13 -32 13
-106z m-1795 -935 c0 -47 -19 -69 -55 -65 -26 3 -30 8 -33 36 -5 52 3 62 48
62 39 0 40 -1 40 -33z m1120 3 c249 -29 385 -62 538 -131 61 -27 62 -28 62
-68 0 -40 -13 -61 -25 -41 -11 18 -128 72 -185 86 -266 62 -399 77 -685 78
-225 0 -370 -11 -490 -39 -33 -7 -94 -21 -135 -31 -41 -9 -103 -29 -137 -44
-34 -16 -64 -26 -67 -22 -9 8 -7 55 3 70 17 28 294 113 446 138 233 38 383 39
675 4z m75 -129 c28 -5 95 -17 150 -26 127 -20 184 -37 264 -78 80 -40 109
-75 93 -112 -14 -30 -93 -82 -142 -94 -19 -4 -64 -16 -100 -25 -241 -63 -691
-79 -1025 -36 -118 16 -312 67 -369 98 -28 15 -58 41 -69 59 l-18 32 26 35
c42 56 142 96 285 116 41 5 93 14 115 20 22 6 78 14 125 20 102 10 594 4 665
-9z"/>
<path d="M773 853 l-43 -4 0 -74 c0 -41 3 -76 8 -78 4 -3 31 -2 60 0 l53 6 -3
76 c-3 83 -1 81 -75 74z m55 -75 l-3 -53 -35 0 c-33 0 -35 2 -38 39 -5 55 2
66 43 66 l36 0 -3 -52z"/>
<path d="M1637 764 c-4 -4 -7 -40 -7 -80 l0 -72 56 -7 c31 -4 60 -3 64 2 5 4
10 42 12 83 l3 75 -60 3 c-34 2 -64 0 -68 -4z m103 -48 c0 -13 -3 -38 -6 -55
-6 -30 -9 -32 -43 -29 -36 3 -36 3 -39 56 l-3 52 45 0 c42 0 46 -2 46 -24z"/>
<path d="M120 146 c0 -2 13 -6 29 -8 17 -2 28 -1 25 4 -5 8 -54 12 -54 4z"/>
</g>
</svg>
