<?xml version="1.0" standalone="no"?>
<!DOCTYPE svg PUBLIC "-//W3C//DTD SVG 20010904//EN"
 "http://www.w3.org/TR/2001/REC-SVG-20010904/DTD/svg10.dtd">
<svg version="1.0" xmlns="http://www.w3.org/2000/svg"
 width="268.000000pt" height="208.000000pt" viewBox="0 0 268.000000 208.000000"
 preserveAspectRatio="xMidYMid meet">

<g transform="translate(0.000000,208.000000) scale(0.100000,-0.100000)"
fill="#000000" stroke="none">
<path d="M940 2065 c-219 -28 -359 -77 -435 -153 -46 -46 -60 -111 -40 -180
12 -41 28 -63 83 -112 80 -74 120 -95 278 -149 113 -38 246 -67 428 -94 l79
-12 19 -55 c17 -49 47 -274 48 -358 0 -32 0 -32 -41 -26 -35 6 -41 4 -46 -15
-3 -12 -13 -21 -25 -21 -18 0 -19 5 -12 56 11 89 11 89 -15 92 -13 2 -28 -1
-33 -6 -12 -12 -51 -203 -43 -210 3 -3 32 -8 65 -10 51 -4 61 -8 65 -26 3 -11
4 -129 3 -261 l-3 -240 -22 -3 c-13 -2 -23 1 -23 7 0 7 -30 11 -80 11 l-81 0
6 -38 c10 -58 13 -63 37 -58 13 3 53 7 91 11 l67 6 0 -111 c0 -60 4 -110 9
-110 10 0 21 270 22 549 0 112 3 210 6 217 3 8 12 14 21 14 16 0 15 -48 -8
-580 -4 -107 -6 -197 -4 -199 16 -17 24 58 37 383 9 203 20 373 25 378 5 5 16
-75 26 -187 25 -284 21 -267 70 -263 48 4 46 -16 22 218 -9 85 -17 203 -16
263 0 59 -4 107 -8 107 -15 0 -33 143 -39 301 l-6 156 162 7 c171 7 402 41
511 75 157 50 243 117 271 211 26 85 -36 168 -180 244 -137 72 -449 148 -721
176 -127 13 -452 10 -570 -5z m670 -49 c130 -16 410 -72 455 -91 17 -7 41 -16
55 -20 29 -8 118 -56 173 -93 39 -26 87 -95 87 -126 0 -26 -35 -88 -67 -117
-88 -83 -378 -154 -674 -165 l-166 -7 -7 69 c-10 109 -31 252 -36 257 -3 2
-17 7 -32 11 -25 6 -26 4 -38 -52 -19 -97 -28 -165 -29 -220 l-1 -54 -62 7
c-89 10 -265 48 -418 90 -177 48 -326 149 -350 235 -14 49 -13 58 10 106 47
97 208 156 515 188 78 8 472 -4 585 -18z m-200 -337 c0 -10 -4 -19 -10 -19 -5
0 -10 12 -10 26 0 14 4 23 10 19 6 -3 10 -15 10 -26z m10 -64 c11 -29 25 -166
24 -238 -1 -49 -12 -67 -45 -67 -38 0 -55 170 -29 281 13 54 35 65 50 24z m20
-335 c0 -6 9 -99 20 -208 10 -108 28 -305 40 -437 11 -132 23 -255 26 -272 4
-28 2 -33 -15 -33 -25 0 -28 16 -41 210 -6 85 -17 211 -25 280 -32 278 -47
441 -41 455 6 17 36 21 36 5z m-188 -323 c-4 -26 -11 -46 -17 -45 -11 3 -9 37
6 75 14 38 19 24 11 -30z m166 -115 c3 -42 2 -43 -25 -40 -24 3 -28 8 -31 41
-2 25 -8 37 -18 37 -8 0 -13 4 -10 8 3 5 22 6 43 3 37 -6 38 -8 41 -49z m-84
8 c16 -16 2 -19 -57 -13 -41 4 -57 10 -57 21 0 12 10 13 53 8 28 -4 56 -11 61
-16z m-103 -586 c5 -2 6 -11 2 -19 -3 -10 -20 -15 -49 -15 -41 0 -44 2 -44 26
0 25 2 26 42 20 22 -4 45 -9 49 -12z"/>
</g>
</svg>
