<?xml version="1.0" standalone="no"?>
<!DOCTYPE svg PUBLIC "-//W3C//DTD SVG 20010904//EN"
 "http://www.w3.org/TR/2001/REC-SVG-20010904/DTD/svg10.dtd">
<svg version="1.0" xmlns="http://www.w3.org/2000/svg"
 width="295.000000pt" height="564.000000pt" viewBox="0 0 295.000000 564.000000"
 preserveAspectRatio="xMidYMid meet">

<g transform="translate(0.000000,564.000000) scale(0.100000,-0.100000)"
fill="#000000" stroke="none">
<path d="M990 5546 c0 -7 -10 -17 -22 -20 -13 -4 -151 -9 -308 -12 -265 -5
-472 -21 -562 -45 -20 -5 -51 -21 -68 -35 l-31 -26 5 -317 c6 -411 23 -755 41
-797 27 -65 116 -94 290 -94 106 0 192 -11 240 -30 11 -5 31 -11 45 -13 101
-19 333 -86 349 -101 11 -10 32 -43 47 -74 15 -32 51 -94 81 -140 29 -45 53
-85 53 -88 0 -3 13 -24 28 -47 15 -23 41 -67 56 -97 16 -30 37 -66 46 -80 21
-31 34 -224 16 -239 -6 -5 -50 -13 -98 -17 -68 -5 -92 -11 -114 -29 -27 -21
-29 -28 -28 -87 0 -65 14 -101 68 -175 22 -30 23 -43 30 -255 18 -629 25 -819
32 -878 l6 -65 -58 -89 c-84 -128 -101 -156 -124 -202 -11 -23 -34 -61 -53
-85 -18 -24 -64 -95 -102 -157 -39 -62 -114 -180 -168 -263 -54 -83 -106 -167
-115 -187 -9 -20 -20 -39 -23 -42 -14 -12 -69 -100 -69 -109 0 -13 79 -4 94
10 6 5 20 9 33 9 13 0 27 9 34 23 6 12 19 31 29 42 10 11 29 40 43 65 43 78
197 332 244 404 25 37 50 80 56 95 18 41 81 141 90 141 13 0 7 -19 -27 -93
-19 -39 -40 -90 -46 -112 -7 -22 -28 -72 -46 -112 -19 -40 -34 -77 -34 -82 0
-6 -8 -25 -18 -43 -10 -18 -38 -78 -61 -133 -24 -55 -49 -113 -57 -129 -8 -16
-14 -37 -14 -47 0 -10 -5 -21 -10 -24 -6 -3 -10 -13 -10 -21 0 -8 -20 -58 -45
-110 -25 -51 -45 -98 -45 -102 0 -5 -11 -31 -25 -58 -41 -81 -38 -87 48 -79
39 4 77 11 83 16 6 5 17 28 24 51 8 24 24 66 36 93 12 28 36 86 53 130 18 44
37 91 43 105 6 14 15 35 19 48 5 12 13 32 18 45 5 12 15 40 22 62 6 22 16 49
20 60 5 11 27 67 50 125 22 58 49 123 59 145 10 22 25 57 34 78 28 68 36 35
36 -151 0 -122 4 -185 13 -202 18 -35 66 -39 102 -8 l27 24 -1 272 c-1 153 2
272 7 272 10 0 215 -205 221 -221 2 -6 -11 -28 -28 -49 -17 -21 -31 -42 -31
-46 0 -4 -6 -15 -14 -23 -8 -9 -26 -40 -41 -68 -14 -29 -41 -73 -60 -98 -19
-25 -35 -47 -35 -50 0 -3 -15 -27 -32 -53 -18 -26 -39 -59 -47 -72 -8 -14 -30
-49 -48 -79 -18 -30 -33 -62 -33 -71 0 -10 25 -25 76 -44 79 -29 85 -28 108
12 82 146 205 342 237 377 9 11 29 44 44 72 14 29 29 53 33 53 9 -1 200 -192
501 -504 l73 -76 87 0 c47 1 99 7 116 14 l30 12 -355 351 -354 352 14 28 c8
15 29 49 47 75 18 26 33 51 33 55 0 7 14 30 99 157 49 74 59 106 36 112 -13 3
-67 -71 -110 -152 -19 -35 -82 -136 -140 -225 -58 -88 -109 -168 -112 -177 -4
-9 -19 -36 -35 -59 -15 -23 -28 -44 -28 -48 0 -3 -17 -29 -38 -58 -21 -29 -56
-81 -77 -117 -117 -198 -161 -251 -180 -220 -3 6 -15 10 -26 10 -35 0 -33 29
7 86 48 67 60 87 102 157 17 30 39 60 47 67 8 7 15 18 15 25 0 11 51 92 171
271 25 38 49 79 53 91 4 13 13 29 20 36 16 16 126 185 126 194 0 4 9 16 19 27
11 12 38 55 61 96 24 41 49 83 57 92 11 13 12 21 3 37 -14 28 -19 24 -55 -46
-16 -32 -33 -59 -37 -61 -5 -2 -8 -9 -8 -15 0 -7 -17 -34 -38 -62 -20 -27 -64
-92 -96 -142 -48 -77 -61 -91 -74 -84 -10 6 -83 76 -163 158 l-147 148 -8 325
c-5 179 -9 469 -9 645 l0 319 30 7 c17 4 53 13 80 21 l50 13 0 112 c-1 91 -4
115 -18 131 -13 15 -17 38 -17 112 l0 93 41 46 c23 25 65 73 95 106 29 33 67
81 82 106 16 25 40 56 53 70 27 27 140 164 181 220 23 31 35 38 90 48 35 7 79
16 98 21 19 4 60 11 90 15 30 4 84 14 120 22 36 7 92 18 125 24 33 6 80 15
105 19 85 17 165 32 210 39 43 7 98 30 73 31 -10 0 -13 119 -13 558 0 632 8
576 -85 605 -111 34 -224 53 -470 77 -234 23 -768 49 -1012 50 -123 0 -204 4
-208 10 -9 15 -45 12 -45 -4z m-19 -101 c11 -25 23 -68 26 -96 l6 -50 71 5
c157 12 561 15 726 6 206 -12 405 -33 545 -59 28 -5 77 -14 110 -20 61 -11
161 -33 225 -49 20 -5 45 -14 58 -21 l22 -12 0 -343 c0 -305 -2 -345 -16 -350
-9 -3 -21 -3 -26 1 -28 16 -258 24 -948 33 -410 5 -954 5 -1210 1 -256 -4
-468 -6 -473 -4 -4 2 -7 24 -7 48 0 24 -4 47 -10 50 -6 4 -10 63 -10 144 0
128 -2 140 -20 152 -20 13 -21 27 -27 249 -6 233 -5 235 17 263 28 35 52 45
160 64 76 14 169 19 683 31 l78 2 20 -45z m594 26 c99 -6 297 -18 440 -26 310
-19 374 -25 615 -65 128 -20 143 -32 138 -111 -3 -53 -4 -54 -33 -52 -16 1
-50 6 -75 13 -106 26 -129 31 -205 46 -116 22 -294 46 -490 66 -138 14 -672
17 -821 4 l-101 -9 -6 33 c-4 18 -7 47 -7 66 0 31 3 34 38 39 20 4 44 8 52 10
23 5 252 -2 455 -14z m-1520 -631 c3 -5 1 -10 -4 -10 -6 0 -11 5 -11 10 0 6 2
10 4 10 3 0 8 -4 11 -10z m2425 -399 c290 -21 290 -21 290 -93 0 -31 -5 -40
-22 -47 -43 -16 -1213 -44 -1858 -44 -518 -1 -713 7 -772 31 -27 11 -28 14
-28 82 l0 70 128 1 c70 1 159 5 197 9 99 11 1901 3 2065 -9z m37 -207 c31 -8
19 -24 -18 -24 -16 0 -65 -7 -107 -15 -148 -29 -187 -36 -242 -46 -30 -6 -71
-14 -90 -19 -59 -14 -163 -31 -210 -34 -25 -2 -61 -8 -80 -14 -58 -18 -139
-32 -184 -32 -24 0 -57 -5 -75 -11 -36 -13 -50 -6 -32 15 7 8 35 17 64 20 29
2 77 9 107 15 30 5 98 17 150 26 102 18 179 31 250 45 155 31 224 44 313 59
33 5 61 12 65 15 7 8 61 7 89 0z m-482 -24 c3 -5 3 -10 -2 -10 -4 0 -44 -7
-88 -15 -44 -9 -107 -20 -140 -26 -33 -6 -82 -15 -110 -20 -134 -26 -164 -31
-219 -36 -32 -3 -68 0 -80 5 -11 6 -34 13 -51 16 -16 3 -52 10 -80 16 -27 6
-67 14 -87 17 -20 3 -39 11 -41 18 -8 18 86 25 368 26 132 1 269 5 305 9 100
11 218 11 225 0z m-1055 -49 c25 -7 63 -16 85 -21 22 -4 74 -16 115 -25 41 -9
95 -20 120 -25 115 -22 129 -34 53 -44 -65 -8 -251 23 -328 55 -16 6 -50 15
-75 20 -25 4 -65 13 -90 19 -25 6 -57 14 -72 17 -16 3 -28 10 -28 15 0 12 161
4 220 -11z m87 -128 c4 -10 22 -41 40 -70 18 -29 33 -56 33 -60 0 -4 17 -31
38 -58 47 -64 72 -109 72 -129 0 -9 5 -16 10 -16 6 0 10 -5 10 -10 0 -6 10
-26 23 -45 l22 -34 94 -3 c57 -2 96 -7 98 -14 2 -6 -8 -23 -23 -37 -23 -23
-35 -27 -88 -27 -61 0 -62 1 -81 37 -11 20 -24 42 -30 48 -18 19 -35 54 -35
70 0 8 -3 15 -8 15 -4 0 -13 13 -20 28 -6 16 -31 57 -55 93 -23 35 -48 76 -56
92 -8 15 -18 27 -23 27 -4 0 -8 6 -8 14 0 7 -11 29 -24 49 -23 33 -24 47 -4
47 5 0 12 -8 15 -17z m813 11 c0 -6 -25 -37 -120 -152 -30 -37 -71 -87 -90
-112 -94 -122 -119 -149 -120 -128 0 9 11 30 25 46 14 17 25 34 25 39 0 6 9
18 20 28 11 10 20 23 20 30 0 6 11 22 25 35 14 13 25 29 25 35 0 14 74 131
103 163 13 14 32 22 54 22 18 0 33 -3 33 -6z m-665 -28 c30 -8 60 -18 65 -21
12 -7 14 -245 2 -245 -4 0 -13 15 -21 33 -8 17 -26 50 -40 72 -45 70 -51 80
-58 95 -3 8 -15 27 -25 42 -10 14 -18 29 -18 32 0 10 36 7 95 -8z m515 4 c0
-6 -11 -28 -25 -50 -14 -22 -25 -43 -25 -47 0 -5 -17 -30 -38 -58 -20 -27 -63
-90 -95 -138 -32 -48 -62 -85 -67 -82 -6 4 -10 77 -10 174 l0 168 63 12 c34 6
78 16 97 20 51 12 100 13 100 1z m-295 -184 c0 -157 -2 -180 -17 -190 -11 -7
-26 -7 -45 0 l-28 9 -7 145 c-4 79 -9 152 -11 162 -6 20 11 36 50 48 59 18 58
21 58 -174z m-15 -346 c11 -7 14 -28 12 -96 -2 -92 -12 -117 -46 -112 -19 3
-22 12 -27 93 -8 112 -7 114 41 124 3 0 12 -3 20 -9z m38 -262 c7 -7 12 -41
12 -83 0 -67 -2 -73 -25 -83 -14 -7 -37 -12 -50 -12 -13 0 -27 -4 -30 -10 -3
-5 -18 -10 -32 -10 -27 0 -84 -16 -115 -31 -24 -12 -24 -12 -50 14 -55 53 -88
169 -55 194 29 23 80 31 202 32 90 1 135 -3 143 -11z m-168 -310 c1 -35 5
-110 10 -168 5 -58 10 -358 10 -667 1 -309 5 -565 9 -567 4 -3 8 -136 10 -295
l3 -291 -26 -11 c-20 -9 -29 -9 -41 1 -14 11 -16 57 -14 370 0 219 -3 365 -9
376 -5 11 -13 136 -16 279 -7 336 -23 783 -32 907 -6 90 -5 98 12 104 11 3 26
9 34 14 8 5 23 9 33 9 14 1 17 -9 17 -61z m-106 -1280 c-4 -13 -15 -30 -25
-39 -11 -9 -19 -19 -19 -22 0 -4 -25 -47 -55 -98 -30 -50 -55 -93 -55 -95 0
-2 -20 -35 -45 -74 -25 -39 -45 -74 -45 -78 0 -4 -13 -23 -28 -42 -16 -19 -32
-42 -35 -50 -4 -8 -18 -33 -32 -55 -14 -22 -28 -47 -31 -55 -14 -37 -30 -66
-47 -85 -17 -19 -75 -112 -103 -165 -21 -41 -73 -85 -84 -74 -7 7 -2 22 15 48
14 20 25 39 25 41 0 2 34 55 76 116 42 61 91 140 110 175 18 34 48 83 66 107
18 24 42 59 53 78 11 19 28 47 37 62 9 16 23 36 31 45 7 9 30 46 51 82 49 87
55 97 96 153 37 50 56 61 44 25z m326 -140 c56 -59 106 -108 111 -108 15 0 39
-26 39 -42 0 -7 -10 -26 -23 -41 l-22 -28 -75 74 c-145 142 -200 209 -200 243
0 17 3 34 6 37 13 13 65 -29 164 -135z m-285 -21 c-3 -18 -16 -52 -27 -77 -21
-46 -35 -79 -48 -115 -4 -11 -12 -31 -18 -45 -6 -14 -25 -61 -42 -105 -18 -44
-38 -93 -45 -110 -7 -16 -18 -50 -25 -75 -8 -25 -17 -49 -22 -54 -4 -6 -8 -16
-8 -24 0 -13 -7 -32 -52 -132 -11 -25 -25 -56 -30 -70 -6 -14 -14 -33 -19 -42
-5 -10 -9 -23 -9 -28 0 -6 -15 -48 -34 -93 -18 -45 -40 -102 -48 -127 -13 -39
-19 -45 -46 -48 -43 -4 -48 14 -21 74 12 27 34 76 49 109 15 33 31 73 34 90 4
16 20 56 36 90 44 95 70 154 70 160 0 2 20 46 44 97 24 51 49 111 56 133 7 22
21 58 31 80 9 22 25 58 34 80 17 41 33 76 79 178 14 32 26 61 26 65 0 14 23
31 32 26 5 -3 6 -20 3 -37z m595 -292 c7 -8 18 -15 24 -15 6 0 25 -17 41 -38
31 -38 151 -159 221 -223 21 -19 70 -67 107 -105 37 -38 101 -103 142 -144 41
-41 75 -78 75 -81 0 -4 -20 -12 -44 -19 -61 -17 -79 -5 -226 151 -69 74 -188
198 -265 276 -77 79 -141 150 -143 157 -4 17 27 56 44 56 6 0 17 -7 24 -15z"/>
</g>
</svg>
